# xmcd
#
# Track frame offsets:
#	150
#	14661
#	31611
#	48503
#	61237
#	78290
#	94047
#	109066
#	125167
#	139546
#	150088
#	160993
#
# Disc length: 2266 seconds
#
# Revision: 0
# Processed by: cddbd v1.5PL3 Copyright (c) Steve Scherf et al.
# Submitted via: dBpowerAMP V4.0
#
DISCID=8c08d80c
DTITLE=De Smurfen - Fiësta
DYEAR=1900
DGENRE=
TTITLE0=Baby Smurf
TTITLE1=Doe Die Doe Da
TTITLE2=Een Smurf Op Een Fiets
TTITLE3=Smurfen Samba
TTITLE4=Hee Knutselsmurf
TTITLE5='n Frisco 'n Frisco
TTITLE6=La Li La
TTITLE7=In M'n Ruimteschip
TTITLE8=Vertel Het Maar Aan Mij
TTITLE9=De Smurfen Gaan Naar Zee
TTITLE10=Wind Smurfen
TTITLE11=Hé Kom Naar Smurfenland
EXTD=Dark_Ice
EXTT0=
EXTT1=
EXTT2=
EXTT3=
EXTT4=
EXTT5=
EXTT6=
EXTT7=
EXTT8=
EXTT9=
EXTT10=
EXTT11=
PLAYORDER=
